<?xml version="1.0" encoding="utf-8"?>
<!-- Svg Vector Icons : http://www.onlinewebfonts.com/icon -->
<!DOCTYPE svg PUBLIC "-//W3C//DTD SVG 1.1//EN" "http://www.w3.org/Graphics/SVG/1.1/DTD/svg11.dtd">
<svg version="1.1" xmlns="http://www.w3.org/2000/svg" xmlns:xlink="http://www.w3.org/1999/xlink" x="0px" y="0px" viewBox="0 0 256 256" enable-background="new 0 0 256 256" xml:space="preserve">
<metadata> Svg Vector Icons : http://www.onlinewebfonts.com/icon </metadata>
<g><g><path fill="#FFFFFF" d="M12.9,88.5h50.7v152.3H12.9V88.5L12.9,88.5z"/><path fill="#FFFFFF" d="M230,102.4C219.4,90.8,205.3,85,187.8,85c-6.5,0-12.3,0.8-17.6,2.4c-5.3,1.6-9.7,3.8-13.4,6.7c-3.6,2.9-6.5,5.5-8.7,8c-2,2.3-4,5.1-6,8.1V88.5H91.6l0.1,7.4c0.1,4.9,0.1,20.1,0.1,45.5s-0.1,58.5-0.3,99.4h50.5v-85c0-5.2,0.6-9.4,1.7-12.5c2.1-5.2,5.4-9.6,9.8-13.1c4.4-3.5,9.8-5.3,16.2-5.3c8.8,0,15.3,3.1,19.4,9.2c4.1,6.1,6.2,14.5,6.2,25.3v81.4H246v-87.3C246,131.1,240.7,114,230,102.4z"/><path fill="#FFFFFF" d="M38.6,15.2c-8.5,0-15.4,2.5-20.7,7.4c-5.3,5-7.9,11.2-7.9,18.8c0,7.5,2.6,13.7,7.7,18.7c5.1,5,11.9,7.5,20.3,7.5h0.3c8.6,0,15.6-2.5,20.8-7.5c5.3-5,7.9-11.3,7.8-18.7c-0.1-7.6-2.7-13.8-7.8-18.8C53.9,17.7,47.1,15.2,38.6,15.2z"/></g></g>
</svg>