<?xml version="1.0" encoding="utf-8"?>
<!-- Svg Vector Icons : http://www.onlinewebfonts.com/icon -->
<!DOCTYPE svg PUBLIC "-//W3C//DTD SVG 1.1//EN" "http://www.w3.org/Graphics/SVG/1.1/DTD/svg11.dtd">
<svg version="1.1" xmlns="http://www.w3.org/2000/svg" xmlns:xlink="http://www.w3.org/1999/xlink" x="0px" y="0px" viewBox="0 0 256 256" enable-background="new 0 0 256 256" xml:space="preserve">
<metadata> Svg Vector Icons : http://www.onlinewebfonts.com/icon </metadata>
<g><g><path fill="#FFFFFF" d="M37.5,33.6c-16,0-27.5,11.5-27.5,27.5v133.7c0,16.1,11.5,27.6,27.5,27.6h180.9c16,0,27.5-11.5,27.5-27.5V61.1c0-16-11.5-27.5-27.5-27.5H37.5z M218.5,210.6h-181c-9.9,0-15.7-5.8-15.7-15.7V61.1c0-10,5.8-15.7,15.7-15.7h180.9c9.9,0,15.7,5.8,15.7,15.7v133.7C234.2,194.9,230.5,210.6,218.5,210.6z M153.2,104.4h40.2c3,0,5.5-2.6,5.5-5.9s-2.5-5.9-5.5-5.9h-40.2c-3,0-5.5,2.6-5.5,5.9S150.1,104.4,153.2,104.4L153.2,104.4z M153.2,135.9h40.2c3,0,5.5-2.6,5.5-5.9c0-3.3-2.5-5.9-5.5-5.9h-40.2c-3,0-5.5,2.6-5.5,5.9C147.7,133.2,150.1,135.9,153.2,135.9L153.2,135.9z M213,155.5h-59.8c-3,0-5.5,2.6-5.5,5.9c0,3.3,2.5,5.9,5.5,5.9H213c3,0,5.5-2.6,5.5-5.9C218.5,158.2,216,155.5,213,155.5L213,155.5z M122.5,147.7c-6.4-6.8-14.7-11.8-23.8-14.4l-0.8-0.2l0.7-0.4c9.9-5.2,16-15.2,16-26.1c0-16.4-13.5-29.7-30.1-29.7c-16.6,0-30.1,13.3-30.1,29.7c0,10.9,6.1,20.9,16,26.1l0.7,0.4l-0.8,0.2c-9.1,2.6-17.3,7.5-23.7,14.4c-6.6,7-11,15.6-12.8,24.9c-0.3,1.4,0,2.9,0.8,4.1c0.8,1.2,2.1,2,3.5,2.3c0.4,0.1,0.7,0.1,1.1,0.1c2.6,0,4.8-1.9,5.3-4.4c3.7-18.9,20.6-30.9,40.1-30.9c19.5,0,36.2,12,39.8,31c0.5,2.6,2.7,4.4,5.4,4.4c0.4,0,0.7,0,1-0.1c3-0.6,4.9-3.4,4.4-6.3C133.5,163.4,129.1,154.7,122.5,147.7L122.5,147.7z M84.8,88.7c10.8,0,19.7,8.8,19.7,19.7c0,10.8-8.8,19.7-19.7,19.7s-19.7-8.8-19.7-19.7C65.1,97.5,73.9,88.7,84.8,88.7L84.8,88.7z"/></g></g>
</svg>